<svg version="1.1" xmlns="http://www.w3.org/2000/svg" xmlns:xlink="http://www.w3.org/1999/xlink" width="387.93499" height="303.44471" viewBox="0,0,387.93499,303.44471"><g transform="translate(-48.48705,-28.18752)"><g data-paper-data="{&quot;isPaintingLayer&quot;:true}" fill-rule="nonzero" stroke="none" stroke-linecap="butt" stroke-linejoin="miter" stroke-miterlimit="10" stroke-dasharray="" stroke-dashoffset="0" style="mix-blend-mode: normal"><g><path d="M197.56885,250.34942c0,31.57137 -31.30966,39.05565 -53.66311,39.05565c-23.18308,0 -63.36881,-9.33894 -63.36881,-44.45927c0,-40.28236 55.36644,-43.34762 69.97688,-43.34762c2.7654,0 5.22562,0.19039 7.39188,0.42088c6.5908,3.96368 21.26113,15.91157 26.60752,20.75096c7.23608,6.54473 13.05571,15.59607 13.05571,27.57939z" data-paper-data="{&quot;noHover&quot;:false,&quot;origItem&quot;:[&quot;Path&quot;,{&quot;applyMatrix&quot;:true,&quot;segments&quot;:[[[270.23672,145.79312],[0,0],[0,-4.96772]],[[264.82955,134.38648],[2.99974,2.71313],[-2.21637,-2.00619]],[[253.82414,125.80761],[2.73225,1.64317],[-0.89801,-0.09553]],[[250.76708,125.63565],[1.1464,0],[-6.05679,0]],[[221.82057,143.55765],[0,-16.69918],[0,14.55923]],[[248.03483,161.93821],[-9.61062,0],[9.2667,0]],[[270.23671,145.79313],[0,13.08802],[0,0]]],&quot;closed&quot;:true,&quot;fillColor&quot;:[0.30196,0.56471,0.99608]}]}" fill="#ffe4c6" stroke-width="0.5"/><path d="M221.87624,234.48457c0,31.06437 -25.90235,70.14845 -95.72816,70.14845c-69.27268,0 -77.66103,-38.39266 -77.66103,-52.03518c0,-28.62167 27.65376,-58.16513 97.15693,-60.88439c-5.57688,-6.17602 -10.92326,-14.65651 -10.92326,-24.51964c0,-5.99166 1.75141,-10.78498 3.82546,-14.33387c-3.5489,0.50699 -7.60479,0.82963 -12.16768,0.82963c-27.10069,0 -59.63997,-19.40376 -59.63997,-56.50586c0,-38.11609 33.96806,-68.99618 83.88312,-68.99618h78.85937l-23.50572,13.31988h-22.2613c12.72074,9.31006 25.90235,24.88842 25.90235,49.40807c0,14.97915 -5.16203,25.90235 -12.16768,33.82977c-9.21792,11.15369 -18.1132,15.57829 -23.18308,22.16909c-5.06988,6.5908 -5.39246,9.3562 -5.39246,12.30589c0,2.94976 0.46092,8.38829 7.37436,14.10345c2.58105,2.1662 9.58663,7.28215 17.37578,13.55031c13.08946,10.46234 28.29904,25.71799 28.25296,47.61058zM143.75429,143.54973c19.40376,0 33.82977,-13.64252 33.82977,-34.98205c0,-25.48756 -13.64252,-68.48918 -45.99745,-68.48918c-15.80872,0 -32.86192,12.02939 -32.86192,38.62309c0,36.13425 21.52388,64.89421 45.02953,64.84814zM197.44867,250.33942c0,-11.98332 -5.8073,-20.97081 -13.04338,-27.51547c-5.34638,-4.83939 -19.95682,-16.73056 -26.54762,-20.69425c-2.1662,-0.23043 -4.60896,-0.41478 -7.37436,-0.41478c-14.61037,0 -69.82581,2.94976 -69.82581,43.23205c0,35.12026 40.05186,44.33825 63.23494,44.33825c22.35345,0 53.55617,-7.37436 53.55617,-38.94573z" fill="#4d90fe" stroke-width="1"/></g><text transform="translate(258.5121,292.87779) scale(3.24456,3.24456)" font-size="40" xml:space="preserve" fill="#4d90fe" fill-rule="nonzero" stroke="none" stroke-width="1" stroke-linecap="butt" stroke-linejoin="miter" stroke-miterlimit="10" stroke-dasharray="" stroke-dashoffset="0" font-family="Serif" font-weight="normal" text-anchor="start" style="mix-blend-mode: normal"><tspan x="0" dy="0">TV</tspan></text><text transform="translate(86.29102,254.48577) scale(0.87765,0.87765)" font-size="40" xml:space="preserve" fill="#4d90fe" fill-rule="nonzero" stroke="none" stroke-width="1" stroke-linecap="butt" stroke-linejoin="miter" stroke-miterlimit="10" stroke-dasharray="" stroke-dashoffset="0" font-family="Serif" font-weight="normal" text-anchor="start" style="mix-blend-mode: normal"><tspan x="0" dy="0">Google</tspan></text></g></g></svg>