<svg width="44" height="44" viewBox="0 0 44 44" xmlns="http://www.w3.org/2000/svg"><title>heart-on</title><g id="Page-1" fill="none" fill-rule="evenodd"><g id="Group-Copy-5"><circle id="Oval" fill="#E02B3A" fill-rule="nonzero" cx="22" cy="22" r="22"/><path d="M30.687 24.528L22.38 32.86a.635.635 0 0 1-.36.139.488.488 0 0 1-.362-.139l-8.306-8.333c-1.296-1.297-2.217-2.611-2.763-3.945-.547-1.333-.713-2.564-.5-3.694.213-1.13.745-2.12 1.597-2.972 1.26-1.26 2.787-1.89 4.583-1.89 1.796 0 3.324.63 4.583 1.89a6.84 6.84 0 0 1 1.167 1.555 6.84 6.84 0 0 1 1.167-1.555C24.447 12.639 25.974 12 27.77 12c1.796 0 3.333.639 4.611 1.917.852.852 1.38 1.842 1.584 2.972.203 1.13.032 2.361-.514 3.694-.547 1.334-1.468 2.648-2.764 3.945z" id="heart" fill="#FFF"/></g></g></svg>