<svg xmlns="http://www.w3.org/2000/svg" viewBox="0 0 1200 1200">
  <path fill="#e60012" d="M420.3 628.3v-292h93v73.2h73V336.3h73v-73.2h73v292h-73v-146h-73.1v146zm219.1 0v-146h73.1v146zm0 0M890.3 336.3h73.2v73.2h-73.2zm-73.2 146v73.2h-73.2V482.3zm0 0M803.3 555.3v146h-73.1v-146zm-292 0v146H438v-146zm0 0"/>
  <path fill="#fff" d="M409.4 118.5H23.2v882.6h973.6V118.5H617.8zm0 0"/>
  <path fill="#2c2c2c" d="M809.3 482.3h-146v73.2h-73.1v73.2h73.1v73.2h73.2v-292zm0 0M707.3 336.3h-73.1v73.2h73.1zm0 0M585.3 482.3h73.1v73.2H585.3zm0 0M585.3 628.3h73.1v73.2H585.3zm0 0M731.3 628.3h73.1v73.2h-73.1zm0 0"/>
</svg>
