<svg width="50" height="50" viewBox="0 0 50 50" xmlns="http://www.w3.org/2000/svg">
  <path d="M43.516 8.484c-10.598-10.598-27.784-10.598-38.382 0-10.598 10.598-10.598 27.784 0 38.382 10.598 10.598 27.784 10.598 38.382 0 10.598-10.598 10.598-27.784 0-38.382zm-7.072 21.638c-.634 5.666-5.18 9.97-10.912 9.97H22.544v-2.662h3.898c2.098 0 3.766-.554 4.938-1.662 1.17-1.108 1.754-2.568 1.754-4.38 0-2.106-.71-3.88-2.126-5.322-1.416-1.442-3.21-2.163-5.382-2.163h-4.774V19.67h4.662c2.718 0 4.848.677 6.39 2.03 1.54 1.354 2.31 3.114 2.31 5.28 0 1.862-.46 3.532-1.386 5.01-.922 1.476-2.332 2.648-4.23 3.518l5.822 8.05h-3.994l-5.118-7.132c-1.462-.556-2.606-1.36-3.432-2.414-.828-1.052-1.24-2.264-1.24-3.634 0-1.854.634-3.48 1.9-4.878 1.266-1.4 2.926-2.312 4.98-2.738 1.054-.186 2.04-.28 2.958-.28h7.23v2.662z" fill="#0070BA"/>
</svg>
