<svg viewBox="0 0 24 24" xmlns="http://www.w3.org/2000/svg">
  <path d="M22.46 5.674a9.15 9.15 0 0 1-2.605.714 4.581 4.581 0 0 0 2.01-2.528 9.208 9.208 0 0 1-2.907 1.112 4.578 4.578 0 0 0-7.815 4.172 13.008 13.008 0 0 1-9.449-4.791 4.568 4.568 0 0 0-.619 2.31c0 1.586.814 2.986 2.049 3.812a4.564 4.564 0 0 1-2.073-.57v.057a4.58 4.58 0 0 0 3.669 4.492 4.624 4.624 0 0 1-2.064.078 4.58 4.58 0 0 0 4.276 3.175 9.187 9.187 0 0 1-6.782 1.9c-.44 0-.868-.026-1.292-.076a12.96 12.96 0 0 0 7.032 2.062c8.437 0 13.05-6.997 13.05-13.052l-.015-.596c.898-.64 1.678-1.44 2.303-2.347z"/>
</svg>
